<svg width="165" height="63" viewBox="0 0 165 63" fill="none" xmlns="http://www.w3.org/2000/svg">
<path d="M16.4062 37V12.3906H19.4648V23.1133H22.6289V26.1016H19.4648V37H16.4062ZM24.3867 26.1016V23.1133H27.5156V12.3906H30.6094V37H27.5156V26.1016H24.3867ZM33.3516 31.7969V23.1133C33.3516 22.0117 33.8438 20.9336 34.8281 19.8789C36.0469 18.6133 37.5703 17.9805 39.3984 17.9805V20.8281C38.0156 20.8281 37.0547 21.4023 36.5156 22.5508C36.3516 22.9023 36.2695 23.2539 36.2695 23.6055V31.3398C36.2695 32.207 36.668 32.9453 37.4648 33.5547C38.0273 33.9766 38.6719 34.1875 39.3984 34.1875V37.0352C37.1719 37.0352 35.4492 36.1328 34.2305 34.3281C33.6445 33.4375 33.3516 32.5938 33.3516 31.7969ZM40.9102 37.0352V34.1875C42.1523 34.1875 43.043 33.625 43.582 32.5C43.7695 32.125 43.8633 31.7617 43.8633 31.4102V23.6055C43.8633 22.6445 43.4531 21.8828 42.6328 21.3203C42.1172 20.9922 41.5312 20.8281 40.875 20.8281V17.9805C43.0312 17.9805 44.6953 18.8594 45.8672 20.6172C46.4531 21.4844 46.7461 22.3164 46.7461 23.1133V31.7969C46.7461 32.9453 46.2539 34.0586 45.2695 35.1367C44.1211 36.3789 42.668 37.0117 40.9102 37.0352ZM49.418 31.9375V18.0156H52.4062V31.5859C52.4062 32.4297 52.8281 33.1328 53.6719 33.6953C54.2344 34.0469 54.8555 34.2227 55.5352 34.2227V37.1758C53.2852 37.1758 51.5508 36.2969 50.332 34.5391C49.7227 33.6484 49.418 32.7812 49.418 31.9375ZM57.082 37.1758V34.2227C58.3477 34.2227 59.2734 33.7188 59.8594 32.7109C60.0703 32.3359 60.1758 31.9609 60.1758 31.5859V18.0156H63.1641V31.9375C63.1641 33.0391 62.6602 34.1289 61.6523 35.207C60.4336 36.4961 58.9102 37.1523 57.082 37.1758ZM65.2031 32.0078L67.9805 31.4805C67.9805 32.5352 68.5312 33.3672 69.6328 33.9766C70.1719 34.2344 70.6875 34.375 71.1797 34.3984V37.1758C68.9062 37.1758 67.207 36.3555 66.082 34.7148C65.4961 33.8477 65.2031 32.9453 65.2031 32.0078ZM65.3789 23.3594C65.3789 21.2266 66.3516 19.6445 68.2969 18.6133C69.2344 18.1211 70.1719 17.875 71.1094 17.875V20.6172C70.0312 20.6172 69.1992 21.0625 68.6133 21.9531C68.3086 22.3984 68.1562 22.8672 68.1562 23.3594C68.1562 24.1094 68.7422 24.7188 69.9141 25.1875C70.8047 25.5625 72.5273 26.0547 75.082 26.6641C76.6758 26.9922 77.8125 27.7773 78.4922 29.0195C78.8438 29.6758 79.0195 30.4141 79.0195 31.2344C79.0195 33.4844 78.1172 35.1484 76.3125 36.2266C75.2578 36.8594 74.0508 37.1758 72.6914 37.1758V34.3984C73.7695 34.3984 74.6719 34.0234 75.3984 33.2734C75.9141 32.7344 76.1719 32.1016 76.1719 31.375C76.1719 30.4375 75.2461 29.6875 73.3945 29.125C72.9258 28.9844 72.1758 28.7852 71.1445 28.5273C70.043 28.2695 69.2461 28.0586 68.7539 27.8945C66.9727 27.1914 65.8945 26.125 65.5195 24.6953C65.4258 24.2734 65.3789 23.8281 65.3789 23.3594ZM72.6562 20.6523V17.875C74.6719 17.875 76.3008 18.625 77.543 20.125C78.3164 21.0859 78.7031 22.0938 78.7031 23.1484L75.9258 23.6055C75.9258 22.3164 75.2227 21.4141 73.8164 20.8984C73.3945 20.7344 73.0078 20.6523 72.6562 20.6523ZM81.0938 31.7969V23.0781C81.1172 22 81.6328 20.9336 82.6406 19.8789C83.8594 18.6367 85.3359 18.0039 87.0703 17.9805V20.7578C85.9453 20.7578 85.0664 21.25 84.4336 22.2344C84.1758 22.6562 84.0469 23.043 84.0469 23.3945V25.7852H91.9219V23.3945C91.9219 22.3398 91.3828 21.5664 90.3047 21.0742C89.8125 20.8398 89.3086 20.7227 88.793 20.7227V17.9805C90.4102 17.9805 91.8516 18.5547 93.1172 19.7031C94.1719 20.7109 94.7109 21.8242 94.7344 23.043V28.6328H84.0469V31.7969C84.0469 32.4531 84.4219 33.0625 85.1719 33.625C85.7812 34.0469 86.4258 34.2578 87.1055 34.2578V37C84.9727 37 83.2969 36.1328 82.0781 34.3984C81.4219 33.4844 81.0938 32.6172 81.0938 31.7969ZM88.793 37V34.2227C90.1992 34.2227 91.2539 33.6133 91.957 32.3945C92.0977 32.1367 92.2031 31.8906 92.2734 31.6562L94.7695 32.5703C94.3477 34.1875 93.3867 35.4062 91.8867 36.2266C90.9258 36.7422 89.8945 37 88.793 37ZM96.4922 12.3906H99.5859L105.844 33.7656L104.719 37H103.629L96.4922 12.3906ZM105.07 25.4336L109.43 12.3906H112.523C112.312 13.0703 111.434 15.7891 109.887 20.5469C108.082 26.0781 107.051 29.2539 106.793 30.0742H106.441L105.07 25.4336ZM114.211 30.1445V18.5781C114.211 17.3359 114.738 16.0703 115.793 14.7812C117.199 13.0938 118.98 12.2383 121.137 12.2148V15.2734C119.707 15.2734 118.594 16 117.797 17.4531C117.469 18.0859 117.305 18.6484 117.305 19.1406V30.1445C117.305 31.6211 118.031 32.7695 119.484 33.5898C120.094 33.9414 120.633 34.1172 121.102 34.1172V37.1758C119.766 37.1758 118.43 36.6953 117.094 35.7344C115.195 34.3281 114.234 32.4648 114.211 30.1445ZM123.035 37.1758V34.1172C123.855 34.1172 124.688 33.7539 125.531 33.0273C126.422 32.2305 126.879 31.2695 126.902 30.1445V19.1406C126.902 18.2266 126.527 17.3477 125.777 16.5039C125.004 15.707 124.09 15.2969 123.035 15.2734V12.2148C125.402 12.2148 127.301 13.2344 128.73 15.2734C129.551 16.4453 129.961 17.5469 129.961 18.5781V30.1445C129.961 32.7461 128.801 34.7383 126.48 36.1211C125.262 36.8242 124.113 37.1758 123.035 37.1758ZM132.809 37H135.867V12.3906H132.809V37ZM137.625 25.9961H141.422C144.492 25.9727 146.414 24.8008 147.188 22.4805C147.492 21.543 147.645 20.4297 147.645 19.1406C147.645 14.8516 145.711 12.6016 141.844 12.3906C141.703 12.3906 141.562 12.3906 141.422 12.3906H137.625V15.3438H140.93C143.297 15.3906 144.492 16.6562 144.516 19.1406C144.469 21.6953 143.285 22.9844 140.965 23.0078H137.625V25.9961Z" fill="white"/>
<path d="M0.312 60L3.624 55.608L0.516 51.48H1.5L4.332 55.272H5.496V51.48H6.324V55.272H7.476L10.32 51.48H11.304L8.184 55.608L11.496 60H10.524L7.5 56.04H6.324V60H5.496V56.04H4.308L1.284 60H0.312ZM14.3802 60V51.48H15.2082V58.848L20.4882 51.48H21.2682V60H20.4402V52.764L15.2202 60H14.3802ZM30.9374 52.224H27.9014V60H27.0614V52.224H24.0254V51.48H30.9374V52.224ZM39.4136 60V52.224H35.9336L35.8856 54.024C35.8456 55.2 35.7616 56.176 35.6336 56.952C35.5056 57.728 35.3256 58.34 35.0936 58.788C34.8616 59.228 34.5776 59.544 34.2416 59.736C33.9056 59.92 33.5056 60.012 33.0416 60.012V59.268C33.3536 59.268 33.6296 59.188 33.8696 59.028C34.1096 58.868 34.3136 58.588 34.4816 58.188C34.6496 57.788 34.7816 57.236 34.8776 56.532C34.9816 55.82 35.0496 54.92 35.0816 53.832L35.1536 51.48H40.2416V60H39.4136ZM47.2444 60.06C46.6444 60.06 46.1004 59.94 45.6124 59.7C45.1244 59.46 44.7044 59.136 44.3524 58.728C44.0004 58.312 43.7284 57.848 43.5364 57.336C43.3444 56.816 43.2484 56.284 43.2484 55.74C43.2484 55.172 43.3484 54.632 43.5484 54.12C43.7484 53.6 44.0284 53.14 44.3884 52.74C44.7564 52.332 45.1844 52.012 45.6724 51.78C46.1604 51.54 46.6884 51.42 47.2564 51.42C47.8564 51.42 48.4004 51.544 48.8884 51.792C49.3764 52.04 49.7924 52.372 50.1364 52.788C50.4884 53.204 50.7604 53.668 50.9524 54.18C51.1444 54.692 51.2404 55.216 51.2404 55.752C51.2404 56.32 51.1404 56.864 50.9404 57.384C50.7404 57.896 50.4604 58.356 50.1004 58.764C49.7404 59.164 49.3164 59.48 48.8284 59.712C48.3404 59.944 47.8124 60.06 47.2444 60.06ZM44.0884 55.74C44.0884 56.204 44.1644 56.652 44.3164 57.084C44.4684 57.508 44.6844 57.888 44.9644 58.224C45.2444 58.552 45.5764 58.816 45.9604 59.016C46.3524 59.208 46.7804 59.304 47.2444 59.304C47.7324 59.304 48.1684 59.204 48.5524 59.004C48.9444 58.796 49.2764 58.524 49.5484 58.188C49.8284 57.844 50.0404 57.46 50.1844 57.036C50.3284 56.612 50.4004 56.18 50.4004 55.74C50.4004 55.276 50.3244 54.832 50.1724 54.408C50.0204 53.984 49.8004 53.604 49.5124 53.268C49.2324 52.932 48.9004 52.668 48.5164 52.476C48.1324 52.284 47.7084 52.188 47.2444 52.188C46.7644 52.188 46.3284 52.288 45.9364 52.488C45.5524 52.688 45.2204 52.96 44.9404 53.304C44.6684 53.64 44.4564 54.02 44.3044 54.444C44.1604 54.868 44.0884 55.3 44.0884 55.74ZM60.6721 57.804C60.6721 58.228 60.5641 58.608 60.3481 58.944C60.1321 59.272 59.8401 59.532 59.4721 59.724C59.1121 59.908 58.7161 60 58.2841 60H54.2641V51.48H58.3681C58.7681 51.48 59.1121 51.588 59.4001 51.804C59.6961 52.012 59.9201 52.284 60.0721 52.62C60.2321 52.948 60.3121 53.292 60.3121 53.652C60.3121 54.076 60.2041 54.468 59.9881 54.828C59.7721 55.188 59.4721 55.456 59.0881 55.632C59.5761 55.776 59.9601 56.044 60.2401 56.436C60.5281 56.828 60.6721 57.284 60.6721 57.804ZM59.8321 57.66C59.8321 57.372 59.7681 57.108 59.6401 56.868C59.5121 56.62 59.3361 56.42 59.1121 56.268C58.8961 56.116 58.6481 56.04 58.3681 56.04H55.1041V59.268H58.2841C58.5721 59.268 58.8321 59.192 59.0641 59.04C59.2961 58.888 59.4801 58.692 59.6161 58.452C59.7601 58.204 59.8321 57.94 59.8321 57.66ZM55.1041 52.212V55.356H58.0321C58.3121 55.356 58.5601 55.284 58.7761 55.14C58.9921 54.988 59.1641 54.792 59.2921 54.552C59.4201 54.312 59.4841 54.056 59.4841 53.784C59.4841 53.496 59.4241 53.236 59.3041 53.004C59.1841 52.764 59.0201 52.572 58.8121 52.428C58.6041 52.284 58.3681 52.212 58.1041 52.212H55.1041ZM63.7443 60V51.48H64.5723V58.848L69.8523 51.48H70.6323V60H69.8043V52.764L64.5843 60H63.7443ZM74.3015 60V51.48H75.1295V58.848L80.4095 51.48H81.1895V60H80.3615V52.764L75.1415 60H74.3015ZM77.7575 50.76C77.3655 50.76 77.0335 50.704 76.7615 50.592C76.4975 50.472 76.2975 50.312 76.1615 50.112C76.0255 49.904 75.9535 49.68 75.9455 49.44H76.6055C76.6135 49.648 76.6975 49.836 76.8575 50.004C77.0255 50.172 77.3255 50.256 77.7575 50.256C78.1735 50.256 78.4655 50.18 78.6335 50.028C78.8015 49.868 78.8895 49.672 78.8975 49.44H79.5575C79.5495 49.68 79.4775 49.904 79.3415 50.112C79.2055 50.312 79.0055 50.472 78.7415 50.592C78.4855 50.704 78.1575 50.76 77.7575 50.76ZM89.3092 60V51.48H90.1492V55.272H91.4332L94.3612 51.48H95.3332L92.1292 55.608L95.5372 60H94.5052L91.4572 56.04H90.1492V60H89.3092ZM101.318 60.06C100.718 60.06 100.174 59.94 99.686 59.7C99.198 59.46 98.778 59.136 98.426 58.728C98.074 58.312 97.802 57.848 97.61 57.336C97.418 56.816 97.322 56.284 97.322 55.74C97.322 55.172 97.422 54.632 97.622 54.12C97.822 53.6 98.102 53.14 98.462 52.74C98.83 52.332 99.258 52.012 99.746 51.78C100.234 51.54 100.762 51.42 101.33 51.42C101.93 51.42 102.474 51.544 102.962 51.792C103.45 52.04 103.866 52.372 104.21 52.788C104.562 53.204 104.834 53.668 105.026 54.18C105.218 54.692 105.314 55.216 105.314 55.752C105.314 56.32 105.214 56.864 105.014 57.384C104.814 57.896 104.534 58.356 104.174 58.764C103.814 59.164 103.39 59.48 102.902 59.712C102.414 59.944 101.886 60.06 101.318 60.06ZM98.162 55.74C98.162 56.204 98.238 56.652 98.39 57.084C98.542 57.508 98.758 57.888 99.038 58.224C99.318 58.552 99.65 58.816 100.034 59.016C100.426 59.208 100.854 59.304 101.318 59.304C101.806 59.304 102.242 59.204 102.626 59.004C103.018 58.796 103.35 58.524 103.622 58.188C103.902 57.844 104.114 57.46 104.258 57.036C104.402 56.612 104.474 56.18 104.474 55.74C104.474 55.276 104.398 54.832 104.246 54.408C104.094 53.984 103.874 53.604 103.586 53.268C103.306 52.932 102.974 52.668 102.59 52.476C102.206 52.284 101.782 52.188 101.318 52.188C100.838 52.188 100.402 52.288 100.01 52.488C99.626 52.688 99.294 52.96 99.014 53.304C98.742 53.64 98.53 54.02 98.378 54.444C98.234 54.868 98.162 55.3 98.162 55.74ZM115.886 60V53.064L112.802 58.452H112.274L109.178 53.064V60H108.338V51.48H109.202L112.526 57.312L115.874 51.48H116.726V60H115.886ZM120.301 60V51.48H126.733V60H125.893V52.224H121.141V60H120.301ZM136.068 60V52.224H132.588L132.54 54.024C132.5 55.2 132.416 56.176 132.288 56.952C132.16 57.728 131.98 58.34 131.748 58.788C131.516 59.228 131.232 59.544 130.896 59.736C130.56 59.92 130.16 60.012 129.696 60.012V59.268C130.008 59.268 130.284 59.188 130.524 59.028C130.764 58.868 130.968 58.588 131.136 58.188C131.304 57.788 131.436 57.236 131.532 56.532C131.636 55.82 131.704 54.92 131.736 53.832L131.808 51.48H136.896V60H136.068ZM146.19 59.256V60H140.466V51.48H146.082V52.224H141.306V55.296H145.47V56.004H141.306V59.256H146.19ZM149.219 60V51.48H150.059V55.272H151.343L154.271 51.48H155.243L152.039 55.608L155.447 60H154.415L151.367 56.04H150.059V60H149.219ZM157.232 55.68C157.232 55.16 157.32 54.652 157.496 54.156C157.68 53.652 157.944 53.196 158.288 52.788C158.632 52.372 159.056 52.044 159.56 51.804C160.064 51.556 160.636 51.432 161.276 51.432C162.036 51.432 162.684 51.608 163.22 51.96C163.764 52.304 164.164 52.748 164.42 53.292L163.76 53.7C163.576 53.324 163.344 53.028 163.064 52.812C162.784 52.588 162.484 52.428 162.164 52.332C161.852 52.236 161.54 52.188 161.228 52.188C160.716 52.188 160.264 52.292 159.872 52.5C159.48 52.7 159.148 52.972 158.876 53.316C158.612 53.652 158.412 54.032 158.276 54.456C158.14 54.872 158.072 55.296 158.072 55.728C158.072 56.2 158.152 56.652 158.312 57.084C158.472 57.516 158.696 57.9 158.984 58.236C159.272 58.564 159.608 58.828 159.992 59.028C160.384 59.22 160.808 59.316 161.264 59.316C161.584 59.316 161.912 59.26 162.248 59.148C162.584 59.036 162.896 58.864 163.184 58.632C163.48 58.4 163.716 58.1 163.892 57.732L164.588 58.092C164.412 58.516 164.14 58.876 163.772 59.172C163.404 59.468 162.992 59.692 162.536 59.844C162.088 59.996 161.648 60.072 161.216 60.072C160.632 60.072 160.096 59.948 159.608 59.7C159.12 59.444 158.696 59.108 158.336 58.692C157.984 58.268 157.712 57.796 157.52 57.276C157.328 56.748 157.232 56.216 157.232 55.68Z" fill="white"/>
</svg>
